/* XPM */
static char *e4539f026d464c308e56f5226575721c0loKkfz0e770Hn4X[] = {
/* columns rows colors chars-per-pixel */
"64 64 249 2 ",
"   c #1D1D1B",
".  c #1A1A17",
"X  c #17140F",
"o  c #291C09",
"O  c #331D07",
"+  c #241D14",
"@  c #291E13",
"#  c #241D1A",
"$  c #2A1E1A",
"%  c #341E18",
"&  c #1E221C",
"*  c #1F2114",
"=  c #1F220F",
"-  c #2B220C",
";  c #34240B",
":  c #3B2B0D",
">  c #372506",
",  c #3C320D",
"<  c #252315",
"1  c #2C2313",
"2  c #23221C",
"3  c #2B231B",
"4  c #2C291C",
"5  c #2C2919",
"6  c #342414",
"7  c #342914",
"8  c #3B2A14",
"9  c #32251C",
"0  c #342B1B",
"q  c #3C2C1C",
"w  c #3A2615",
"e  c #3C321E",
"r  c #373219",
"t  c #2E301B",
"y  c #1D1D24",
"u  c #251E25",
"i  c #301F25",
"p  c #1D2227",
"a  c #222323",
"s  c #2C2323",
"d  c #2D2C24",
"f  c #2A272B",
"g  c #322424",
"h  c #342D24",
"j  c #3B2D24",
"k  c #31242A",
"l  c #332D2C",
"z  c #3C2E2A",
"x  c #392523",
"c  c #2D3224",
"v  c #2D352B",
"b  c #323226",
"n  c #3B3223",
"m  c #33322B",
"M  c #3C322B",
"N  c #3A3A2C",
"B  c #2E2B33",
"V  c #362D33",
"C  c #2F3931",
"Z  c #3C3A34",
"A  c #373737",
"S  c #442C0B",
"D  c #40330D",
"F  c #422C14",
"G  c #422D1B",
"H  c #443214",
"J  c #43321C",
"K  c #493319",
"L  c #402E26",
"P  c #443326",
"I  c #413A32",
"U  c #433636",
"Y  c #583C26",
"T  c #35403B",
"R  c #59461E",
"E  c #674818",
"W  c #734A1C",
"Q  c #79581A",
"!  c #6B4B14",
"~  c #5D4C2B",
"^  c #594827",
"/  c #5D5328",
"(  c #5A4C33",
")  c #4A4327",
"_  c #684B28",
"`  c #754C25",
"'  c #6C5628",
"]  c #73552C",
"[  c #775927",
"{  c #644E33",
"}  c #645233",
"|  c #6B5737",
" . c #745532",
".. c #735C32",
"X. c #7B5B32",
"o. c #785A39",
"O. c #75632C",
"+. c #7A642C",
"@. c #796425",
"#. c #7C6433",
"$. c #7D6B3B",
"%. c #796439",
"&. c #7D713C",
"*. c #6E632D",
"=. c #77621F",
"-. c #363744",
";. c #413740",
":. c #5E5955",
">. c #6C5A45",
",. c #796646",
"<. c #786F5A",
"1. c #787468",
"2. c #797878",
"3. c #6D6A72",
"4. c #895B0D",
"5. c #875918",
"6. c #945E16",
"7. c #935E19",
"8. c #985D0F",
"9. c #8D6515",
"0. c #8E6918",
"q. c #8D641A",
"w. c #94631B",
"e. c #9B651C",
"r. c #946B1B",
"t. c #9B6B1C",
"y. c #966715",
"u. c #9C731D",
"i. c #97761A",
"p. c #89600E",
"a. c #A1661C",
"s. c #A26A1D",
"d. c #A86D1F",
"f. c #A3731E",
"g. c #A8771C",
"h. c #855D23",
"j. c #865B27",
"k. c #825D36",
"l. c #84642C",
"z. c #8B642A",
"x. c #8A6D2B",
"c. c #886527",
"v. c #936423",
"b. c #956B24",
"n. c #9B6C23",
"m. c #946C2C",
"M. c #9B6D2B",
"N. c #976626",
"B. c #8B742C",
"V. c #9C7324",
"C. c #9D7926",
"Z. c #9C732C",
"A. c #9C7B2A",
"S. c #967429",
"D. c #836433",
"F. c #846B34",
"G. c #8D6C34",
"H. c #846C3B",
"J. c #8B6C3B",
"K. c #856539",
"L. c #976D36",
"P. c #897439",
"I. c #947333",
"U. c #9C7434",
"Y. c #9C7C34",
"T. c #93733B",
"R. c #9C753B",
"E. c #987C39",
"W. c #A26622",
"Q. c #A46C23",
"!. c #A96E23",
"~. c #A46E2A",
"^. c #A37425",
"/. c #AC7426",
"(. c #AC7B25",
"). c #A4742A",
"_. c #AA752B",
"`. c #A47B2B",
"'. c #AB7B2C",
"]. c #A57926",
"[. c #B27C2D",
"{. c #B57926",
"}. c #A47433",
"|. c #AB7533",
" X c #A37B32",
".X c #AC7C33",
"XX c #A2753B",
"oX c #A47B3C",
"OX c #AC7D3B",
"+X c #B37D33",
"@X c #B27D3A",
"#X c #B67A35",
"$X c #A16E33",
"%X c #846A42",
"&X c #876744",
"*X c #8B7344",
"=X c #8C7545",
"-X c #957544",
";X c #987944",
":X c #8C7452",
">X c #A67D43",
",X c #A97F4D",
"<X c #847E72",
"1X c #825D42",
"2X c #9B8139",
"3X c #AD822C",
"4X c #A6812C",
"5X c #B3822D",
"6X c #B6852C",
"7X c #AD8234",
"8X c #AC833B",
"9X c #A68339",
"0X c #B38334",
"qX c #BA8334",
"wX c #B4843A",
"eX c #B9863B",
"rX c #B58A3B",
"tX c #BA8B3D",
"yX c #B78A34",
"uX c #B4903E",
"iX c #9E8144",
"pX c #A38243",
"aX c #AB8343",
"sX c #AA8847",
"dX c #B28443",
"fX c #B58B42",
"gX c #BB8D42",
"hX c #B68848",
"jX c #BC9143",
"kX c #B39146",
"lX c #A68652",
"zX c #B19051",
"xX c #888378",
"cX c #93846A",
"vX c #A78E6F",
"bX c #C19346",
"nX c #C18E4C",
"mX c #767483",
"MX c #928E8E",
"NX c #A6978A",
"BX c #B5A996",
"VX c #9896A4",
"CX c #B8B6B7",
"ZX c #B3AEAA",
"AX c #9EA09E",
"SX c #C6B093",
"DX c #C9B8AE",
"FX c #BFC1BE",
"GX c #BEC3C6",
/* pixels */
"Z Z Z I I U U A -.-.-.-.-.-.-.C C C C C Z Z Z Z I I N I Z Z A A A -.A A A Z U U I I I I Z I I Z A A T T T T T -.U -.;.A A b c c ",
"d d h n h j z z k V B B B B B B c c t c v m V z h 0 b 0 h m m C B v v m C l M m M M j j j j h n C V v v c c d d Z I V l g s 2 & ",
"Z Z Z N q w 8 q G j j j q 8 e e j q 0 x z z L L n q e q e n M m n n h n M M M j P M n n j P j P M n b n e e n n j q x x 4 d c t ",
"d c 0 1 H F S : S S S S S S S S > S : F G F G F H S S , , H , , 7 : 8 8 , 8 8 8 8 F 8 : F K F F 8 : : , , , D , H K P Y @ < 4 4 ",
"C v n J ,.=X-XP.F.x.l.l.c.z.z.z.c.z.G.J.-X*XJ.J.+.+.=.=.=.=.@.@.=.=.@.O.+.+.+.+.O.O.O.@.#.F.F.D.#.X...#.F.F.P.&.K.&X&X>.7 @ 1 < ",
"m d r H cXlXzXaX8X9X9X7X7X7X+X0XOX8XdXhXhXzXsXsX9XY.A.2X4X2XA.S.i.C.S.A.2X2X2X2X2XE.E.E.9X9X9X8XXXXXR.pXsXkXkXkXzXzXvX:XS @ 1 < ",
"A m q H =XsXkX7X3X3X3X3X5X5X5X+X+XwXdXdXhXhXsXsX X X9X4X4X4XC.C.V.C.].`.4X2X2X2X2XE.A.2X9X8X8X7X}.}.Z. X9XrX9XrXrXzXlX=XO o + . ",
"v m n S T.pXkXyX3X(.3X(.(.3X{.[.5X0XOX@X,XhXfXfXA.`.`.`.4XC.].^.f.^.(.`.4X4XA.4X9X XA. X7X8X.X'..X_._.(.5XyX6X3XyXrXaXP.O @ 3 a ",
"A z K K -XzXeXqXg.g.f.].].'.`.].4X4Xi.i.C.V.`.4X4X7X0X0X0X.X@XgX0XgXrXtXjXjXjXjXjXuXuXtXyXeXqXeXqXeXtXyXyXyXyXyXyXrXsXF.> 1 & p ",
"V L G K L.zXeXtX(.].f.V.].`.`.C.i.4Xi.4XC.V.g.g.yX0X3X3XwXwX@X X.XgXjXgXtXrXjXbXuXtXyXyXqX6XqXqX[.{.[.0X6X6X6X6X6X7XsXD.> < p p ",
"M z K S K.,X@XeX^.t.r.r.b.Z.Z.0.i.i.4Xu.i.g.i.4Xg.4X3X].`.U.U.XXI.U.U.Z. X7X5X[.6X6X6X{.(.(.(.(.(.(.(.[.6XyXqX5X3X4XpX#.> < p p ",
"V M P S k.XX$X#X^.t.t.n.Z.Z.S.b.i.9.i.i.i.y.y.y.g.g.Z.q.m.l.G.P.=XH.J.x.x.).`.f.g.g.g.g.d.f.!./.f.Q.s.^.{.[././.(.].9X+.O < p p ",
"m b e S k.>X~.#X!._._._.'..X`. X`.A.`.`.'././.{.'.}.m.T.vXDXDXDXNXvXNXlXK.L.XX@X/././.[.|.|.|. X^.^.^.).!._._.{.(.'.oXl.> < a p ",
"v c e H J.>X|.#X!._.[.[.'.'.'.'.0X8X8X0X#X#X#XqXgXOX>X&XSXDXDXDXAXVXBXcX&X-XOX>X+X{.[.#X@X@X@X>X@X0X+X@X#X#X#XqXeX0XdXK.> - a p ",
"v c r D J.,X@XqX/.!.{./.{.(.(.(.(.(.{.{.{.{.{.{.[.wXXX%XBXCXGXGXAXMXNXcX,.>XXX'.[.{.[.[.+X+XoX7X+X'.@X@X#X#X#X#XqX#XhXz.> 6 a u ",
"C m r : K.,X>X@X#X#X/.(.{.5X5X5X6X6X6XqXqXqXqX[.eX8XT.H.ZXCXCXCXVXMXAXcX>.-XXXOX+X6XqXqX+X0X.XOX.X.XOX@XnX,X#X#X#X@XdXj.> $ u p ",
"v A b K %.-X;XXXN.M.M.Z.). X9X4X9X`.`..X@XeXwX@XsXaX;X,.BXZXCXCXmX2.2.1.( %.J.x.m.M.~.|.|.|.OXOXfX>XOXXX9XaXdXwX,X,X,X&X% i f y ",
"l Z t D *.=XG.L.Z.Z.U.I.I.B.S.B.I.S.S.U.OXaXaXaXiX;X*X,.BXZXCXZX2.2.<X<.^ %.H.l.j.z.z.m.M.}.|.oX>XOXoXOXpXsXsXsXaX>XlX,.% $ B u ",
"0 n , , *.2XI.I.x.x.x.B.B.B.B.B.B.B.P.E.E.;XiXiX2X;XH.,.BXBXZXZX2.1.<.,./ $.P.@.G.x.x.S.I.Y.9X9X9X2XpXsXzXkXkXsXaXsXiX$.- o $ # ",
"t r t , / *.O.O.+.+.#.#.F.$.&.&.&.,.$.&.*X*XP.H.=X=X,.,.BXDXZXZXxX<XcX<./ &.P.&.F.F.F.F.H.P.P.T.%X*X=X=X=X;X=XJ.;X;X=X*.> < t 2 ",
"C A l 4 t e e e G L G L L L n n r b e e e J 8 F H K q j MXVXVXVX3.3.3.T 1 e J H J G q J n e e e q j z j G q G G G K G q X .   . ",
"B B V s 2 4 4 4 g k k k k k k s d d 3 s g 9 9 7 7 7 1 4 MXVXVXVXmXmXmX:.3 3 9 9 6 4 g s s d s s i i i s i i i x % % % g X a p y ",
"B k l s 3 0 h h s s k k k k s g 4 4 4 4 4 0 w 7 7 7 o 9 MXNXMXVXmX3.mX:.3 3 9 0 9 g g g g d d s g g l g k g x x x 9 $ 3 X p . y ",
"z l h 0 < 1 9 @ 0 g 9 9 9 9 0 7 0 7 5 7 w w ; ; - : - 7 MXAXVXVX3.3.2.:.< 1 6 7 w 7 6 6 1 1 0 0 7 1 1 3 3 $ % 6 % w - < X . X y ",
"j P e 7 ^ ~ ( } / ( ~ ( ~ ^ R ^ ~ { { } | >.{ { Y ( ( ) <X<XMXmX3.3.1.>.) ) / ^ { _ ^ { { { / / R / / } | | } ~ _ ^ { ) o - = * ",
"h j J 8 } | %.%.%.*.....*.' O.#.%.&X&Xo.o.,.1X,.&X>.>.( xXxXMX<X:.3.1.:./ / | *. .{  . .] ..[ ] =.' *.O.$.%X$... . .o.{ O - < < ",
"z U L G } |  .X.k.X.] ] E ' W [ K.&X&Xk.1X1X1X&X .{ { ( <XMXMXMX2.1.1.>.( { %.o. .` `  .X.k.[ ` Q ' +.#.$.%XH.o. .]  .Y @ 4 2 & ",
"U V L q { _ ` W W W W W ! ! E E W W j.` ` ` ` ` o. ._ ^ ,.<.:X,.:.>.>./ ^ E _ ` W W ` ` ` W W ! Q ! ! ` [ [ [ ` ` _  .Y o $ # a ",
"k V q F  .D.j.j.5.5.j.v.j.j.c.Q 4.5.q.z.z.m.z.j.z.h.Q E ' E _ Y _ ^ _ ' ` j.D.z.j.j.j.j.j.h.h.5.5.h.h.c.l.c.l.z.j.[  .^ O % 2 a ",
"V z e H %.T.U.$X$X|.$X$X$X$XR.Y.}.).`.XXOXdX8XXXoXU. XU.U.G.L.*Xk.#.K.T.E.XXoXXXoXXX$XXXXXR.U.U.R.U.U.oXoXoXoXoXU.T.J.] O 9 # u ",
"V m r H K.T.XX_.#X#X#X|.$XR.R.U.U.U.Y.R.R.>X>XXX X}.XXoXU.R.R.R.;XL.R.oXY.}.`.}.|.XX$XU.U.U.I.m.$XL.$XXXXX XU.oXU.R.-X..> < . & ",
"m v 0 H D.U.`.).!.|.|.|.}.XXXXL.Z.Y.oXOX>XoXXXXX}.$X). XXX XXX$XL.m.U.}.).V.)._. X}.}.M.U.Z.Z.M.$X$X$X}.XX}.Z.Y.v.m.J.' > - 2 f ",
"b n M H P.8X7XeXeXnXbXbXbXjXjXrX0XrXwX0X@X.X.X0X).]._.|.wXrXwXtX+XeXgXgXeXeXeXtXeXwXwXwX@XwX0X8XgXgXgXnXfXfXgXwX}.XX>Xo.> @ # a ",
"c d z G P.uXrXrXgXgXbXuXbXjXuXtX.X[.7X0X'.'.'..X'.'.^.'.0XeXeXeXwXeXeXtXeXeXeXeXwX0XwX0XwXwXwXeXtXeXgXtXwXtXtX+XoXpXlXX.> 1 2 a ",
"m m M P T.uX0XyX@X@XeXtXtXrXrXrXtXgXtXtXrX0X0X0X'.^.V.].0XeXrX0XeXeXtXrX0X.X+X0X0X.X.X.X.X.X'..XeX0X0XwX0XtXfXwX).R.R.] > 1 2 p ",
"v m z 8 l.C.r.t.n.$X`.4X4X7X3X4X`.`.^.^.^.n.t.r.y.w.y.e.V.].^.^.n.^.n.n.n.t.w.r.t.r.e.t.t.n.n.t.].^.^.^.n.).].Z.q.c.D._ o 1 2 2 ",
"b b M F Q 0.p.9.5.5.9.0.0.9.0.9.y.r.r.n.].`.^.].n.V.^.V.].C.^.Z.9.9.0.r.r.r.t.n.w.y.r.n.^.'.'.'.@X0X7X`.V.n.V.n.7.c.l._ O 1 & p ",
"b b I G l.S.b.C.).}.`.].A.C.i.C.).].^.7XrXuXjXjXrXrXtXrX0X7X.X4XC.C.`.`.`.`.`.`.V.C.]..X0XrXrXrXjXgXbXfX`.`. X`.I.U.P.] > 1 2 & ",
"4 d x w x.9X].'.}.}.C.u.i.b.i.u.`.C.C.`.7XrXrXrXrXrXrX7X7X4X`.A.C.A.A.A.A.`.C.V.^.`.].'.'..X'.'.0XwXgX0X X X X`.}.R.-X..> 1 & p ",
"m h z G T.uX7X7XwX8X`.C.C.C.9X7X7X`.`.7XrXjXjXuX7X8X7X7X8X0X4X`.r.r.V.A.4X`.A.`.7X.X.X7X0X0X0X0XtXtXgXgX7X7X.XZ.b.I.P.' O < & & ",
"N b L P T.kXtXyXdXgXeXyXrXrXrXuXjXjXgXjXjXbXjXjX+X7X X X.X`.n.9.0.S.C.A.C.C.^.C.7X0X0X0XqXrXeXeXgXgXrX8XwXhXjXkX8XaXlX%.7 $ # a ",
"b d z K G.fXuXtXgXhXwX0X3X9X7XyXgXtXgXgXjXjXtXeX].^.^.].`.'.C.n.0.r.i.i.V.t.t.n.^.`.`.'..X0XwXeXtXrX0X0XfXjXjXfXaXsXlXK.; @ . p ",
"b h M G G.8XtXgXnXnXtXeXyX0XyXrXtXtXrXrXtXeXrXwX).^.).'.+X0X.X'.^.`.`.`.`.`.].].0X0X+X0XqXeXtXgXtXeX0XdXjXnXgXwXOX>XlXo.; @   a ",
"N m I G +.`.(.[.|.@X'.(.`.'.`._.0X+X+X+X+X+X+X'.n.Q.t.t.Q.).).Q.^.^.^.^.^.^.^.^.'.(.'./._.(.{.'.0X@X@XwXwXdX@X|.}.L.T. .; 3 2 f ",
"h l z F Q r.t.t.N.W.N.s.d.Q.s.a.7.7.7.7.6.6.6.e.e.e.7.e.e.e.e.e.t.t.s.t.s.s.a.s.a.t.t.y.e.a.s.Q.e.e.e.w.e.7.7.v.5.h.j._ O 3 # u ",
"c l L G [ i.w.e.W.W.Q.d.!.!.s.a.!.!.!.Q.Q.~.!.!.Q.Q.W.W.W.~.!.!.!.!.d.!.!.(.(./.!.!.s.s.s.s.s.a.Q.~.~._.~.~.~.}.7.h.j._ O 9 # u ",
"m b I F [ V.y.a.W.W.a.a.s.s.a.a.W.W.W.a.W.a.W.W.W.e.W.e.W.W.Q.Q.Q.s.s.s.!./.!.!.!.f.d.d.s.s.a.s.a.n.n.~.~.N.W.W.j.5.j._ O 9 u a ",
"b d j S [ n.y.e.W.a.a.a.s.!.!.!.Q.!.Q.Q.a.e.Q.Q.a.e.a.a.a.Q.n.^.a.s.s.d.!.d.d.s.s.s.a.s.d.f.^.d.).W.W.~.~.W.N.7.5.5.k.` O $ $ a ",
"v t e D D.oX).Q.Q.Q.s.s././.'./.'.+X'.^.a.y.y.e.Q.^.^.].0.q.0.0.r.y.r.r.y.i.r.t.u.y.i.t.y.y.r.r.Q.Q._././.s.a.s.6.j.J.X.; 6 < s ",
"T t r D +.XX_././.{.(._./.'.'.`..X.X7X`.t.w.w.t.`.^.`..Xi.0.0.r.0.0.r.t.r.r.r.0.9.9.9.9.0.0.0.w.Z.)._./.d.s.a.s.w.N.J.' ; 1 * & ",
"C c e D X.XX|.+X#X[.[.[.[.+X.X'.'..XOX).e.7.7.e.).). X Xb.9.q.q.b.b.m.M.Z.m.n.b.b.b.b.b.b.V.M.b.).)._._./.d.!.Q.N.m.J. .; < * & ",
"C b n , ] m.~._.!.d.!.!.!._.'.'.W.$X_.~.w.w.w.N.|.|.+X.Xb.b.b.b.n.n.n.n.n.b.m.n.v.b.v.v.v.q.7.9.).Z.).).!.Q.t.N.w.j.X.{ - 4 2 a ",
"B A j : _ h.5.8.8.8.8.y.W.Q.~._.^.).).!._.Q.Q.).).Q.).n.9.4.p.q.`.].^.u.a.f.f.f.y.y.t.y.9.p.8.p.4.5.4.4.4.4.4.4.5.[ [ ^ - < 2 a ",
"B V P F ` j.7.6.a.8.e.e.W._.$X_.|.'.'.[.+X0X+X+XeXwXeX0Xn.y.t.n.yX3X(.(.].]./.].].].g.f.s.t.y.f.n.n.V.n.V.Q.n.b.5.[ ..{ - < 2 a ",
"B V M F X.L.N.e.s.t.s.Q.!.|.|.|.'.(.'.5X[.5X#X[.qX0XqX0X^.r.t.i..X.X'._.).).).Q.)._._.Q.a.t.n.Q.0.0.w.r.n.t.n.b.z.l.%.} - 5 2 d ",
"A V n F [ z.5.6.e.y.N.n.~.~.|.|.)..X.X.X|.)._.'..X7XrXrX XV.V.V.OXOX@X@X@X@X@XOX|.|.}.M.N.N.N.M.b.b.r.n.n.Z.M.M.c.D.F.{ - < * & ",
"C Z n K X.T.z.r.4.4.4.Q Q Q 5.5.5.h.h.z.L.XXXXXX$XXXXXR.U.I.L.I.XX}.}.oXoXOXOXXXm.v.j.z.N.M.M.M.Y.Z.Z.U.`.U.U.R.G.K.%X| 6 + 5 + ",
"l M 0 K o.J.c.h.! ! Q Q 4.5.h.j.c.@.j.l.L.R.;XR.-XR.;X;XT.G.G.P.>XXXoXoXpX>X>XXXm.c.z.v.m.L.L.I.U.U.U.U.R.}.R.T.K.H.&X} 6 o 3 < ",
"m m 0 K %.=XJ.F.! W Q O.+.l.k.l.x.@.x.B.T.E.E.E.E.E.2X2XI.I.B.I.;X2X;XiXpXpXiXE.x.l.x.l.G.I.I.I.-X-XR.-X;X;X-X-X*X:X:X| w o 3 1 ",
"d m 0 J { ,...] ' ' } ..' ......*.=.' ' +.+.+.+.+.+.+.O.O.O.O...H.H.H.H.*X%XP.%X#.O.O.#.#.$.$.$.%XH.%X%X%X%X%X%Xo.o.>.( 7 @ 3 3 ",
"a 4 < 1 8 F F S : 7 6 7 7 ; : : 8 0 8 q q G G q G G G q q q q q 8 8 8 w 7 w 8 w w w w 8 q 8 8 w : ; 8 : : 8 : : , J j 0 $ + # # ",
"& 2 < < @ @ @ @ 9 3 $ < 1 1 ; 1 <   # # $ # $ + $ $ # # # # + + + 3 # $ 1 # 3 3 $ 3 3 3 3 $ 3 $ + @ @ @ @ 1 - @ + + @ # # # #   ",
"& & 2 3 $ $ s i u u y a a 2 < < 4 2 a 3 a 3 s 3 s 3 u $ 2 2 s 2 2 3 2 2 < 2 < a # < # 2 + 2 < 2 2 2 < 2 2 3 < 2 3 2 2 & u y . y ",
"& & . 2 $ $ u u u u u a a 2 2 * 2 2 2 & 2 # # < # # # + < 2 & & 2 2 2 #   # 2 2 & 2 2 2 & # 2 2 y y y u a   2 2 & 2 # y   . . y "
};
