/* XPM */
static char *_611752124628[] = {
/* columns rows colors chars-per-pixel */
"64 64 78 1 ",
"  c #020101",
". c #090506",
"X c #0C0708",
"o c #0D0B0C",
"O c #150D0E",
"+ c #110F10",
"@ c #190F10",
"# c #121011",
"$ c #1A1213",
"% c #261D1E",
"& c #8D4746",
"* c #8E4947",
"= c #8F4948",
"- c #914B4A",
"; c #9A4E4D",
": c #95504F",
"> c #9B504F",
", c #965150",
"< c #9C5251",
"1 c #9F5958",
"2 c #A15655",
"3 c #A25857",
"4 c #A55B5A",
"5 c #A85E5D",
"6 c #AC6463",
"7 c #C37E84",
"8 c #C7848A",
"9 c #C8848A",
"0 c #CE8B8D",
"q c #D28787",
"w c #D08C8C",
"e c #D38F90",
"r c #D49291",
"t c #D89595",
"y c #E38585",
"u c #E08884",
"i c #E48888",
"p c #E28F92",
"a c #E59494",
"s c #EA9497",
"d c #E49996",
"f c #EC9A97",
"g c #EC9699",
"h c #E29E9D",
"j c #ED9C9C",
"k c #CEA29A",
"l c #D2A49C",
"z c #DAA29D",
"x c #E2A09E",
"c c #EDA29F",
"v c #EE9FA0",
"b c #DBA6A2",
"n c #E4A2A2",
"m c #EEA4A3",
"M c #EFA9A6",
"N c #EFA6A8",
"B c #EEABAA",
"V c #F0A6A4",
"C c #F0A8A6",
"Z c #F1AEAC",
"A c #EFB1AE",
"S c #F1B1AD",
"D c #E5B1B2",
"F c #EFB4B2",
"G c #EDBABC",
"H c #F1B4B1",
"J c #F6BAB5",
"K c #EFBFC1",
"L c #DDD7D6",
"P c #DBDBDB",
"I c #EFC2C4",
"U c #F1C3C4",
"Y c #F3C5C8",
"T c #ECE4E5",
"R c #ECECEC",
"E c #FCECEC",
"W c #FBF5F4",
"Q c #FDFCFC",
/* pixels */
"ffffffffuuyyyuuugggffgjfgjgggjgjvvcvVcmjccccMccccccjvvgvNNCCCCVN",
"ffffffffuuquuuuugfgjfgggggfjgjgjvvVcvvmmcMxxcccxccjjvvvvVNCNCCVZ",
"ffffffffuuuuuuuufggfgjfgjggggggjVVvcjmjmcxccxxccvjmjvggvNVVNVNVZ",
"ffffffffuuuuuuuufjggggfgggjgjgggvvvcmmjmcxcxccccvvvjvvvvVVVNNVNN",
"ffffffffuuuuuuuugffgffgggjgjgggjvmmmmmvmcccccxxcjvjjvjvvNMCCNMNM",
"ffffffffuuuuuuuufjgggjgggggggjjgmmjjjmmjxcxMccccjvvjjvvvmNMmMNVB",
"fjffffffuuuuuuuufgfjggffjgjfgfgjjmnmmmmjcccxcxccvjvvvjvvCMNNNMNB",
"ffffffffuuuuuuuugggggffjfggjjjggjmvmjjmmxxccccccvvvvvvvvNMMMMCmZ",
"faaaaaaayyyyyyyijVjjVjjjccccccccdjjjjgjjmmVCCVMCZZZZZZZZSZSZSZZS",
"aaaaaaaayyyyyyyivjjvjvVjcjVcccccjfjfjffjNNVCVCVCSZSZZSZZSSSSSZSS",
"aaaaaaaayyyyyyyiVjjVvjvjcccVccccjfgffjhgVVVCCVVCZZSZSZZSZSSSSSSS",
"aaaaaaaauyyyyyyijvjjVjjVccccccccjgjjjjfgVCVVVCVCZSZZSZSZSZCSSSSS",
"aaaaaaaayyyyyyyijVjjcjcjcccccMccsjfjgjjjVVCVCVCCZSZSZSZZSZZZSSZS",
"aaaaaaaayyyyyyyivjjVjccjccccccccjdjfjdgfVVVVVCVCSZSSZSZSSSSZSZSS",
"aaaaaaaayyyyyyyyvcjjVjjVccccccccjgjgjgjjVVCCCVCCSZSZSSZSZSSZSSSS",
"aaaaaaaaiiiiiiiijjVVjccccccVccccjfjjjfjjVVVVVCVCZZZZSZZZZSZSSSSS",
"fafassfacccccccMMMMcMMMcnMMMMMxMNvvNvNNvvNNNNNNvCCZVBCBCSSJSSSSJ",
"faaffaafcMMccMccMMMMMMMMMMxMMcMMvNNvNNvNNNvvvvNNCCZVNMCBSSSSSSSS",
"afaasdsdccccccMMMcMMMMMMMccMMcMMNvvNvNNvNNvNNNvNCCVVMMBCSHSSSSSJ",
"fafaasafcMcMMccxMMMMMMcMMMMMMMnMvNNvNvvNNvNNvNNNCNNZCBCMHHSSSSSS",
"afasffsscMcccccmMMMMcMMMnMMMcVVVNvNvNvNvNvNNNNvvCCNMNBMBSSSSJSSF",
"aassaaadcccMMMmcMMcMMMMMMMxMMVcVvNmNvNvNvNNvNNNNCZMNBCBBSSSSSSSF",
"jfjgjffjccccccccMMMMMMMccMMMMcVVvNmvvNvNNvNvVvmNCVVVCMMNJJJSJJJJ",
"qqqqqqqwMBSBBBZZMcMMccMMMMccMMVVmmmNNvNvNNNNNmVNHHZHSSHBzzzzzzll",
"oXXXXo.$RQQQQQQWcccccjjjjccjjVjVNNMMNBCBCVCVCVVSWWQRWWQP$ooooo.$",
"       oRQQQQQQWcfcffcVjcjjcvjjjBNCBBCMCVVVCVCVSQQQQQQQP..     +",
"       #RQQQQQQWccfccfccvjjcjjvjMCBMBCMBVCCVCCVSQQWQQWQP.      +",
"       +RQQQQQQWccfcccfcjcjjVjjjNBCMCMMCCVVVVCVSQRQQQWQP.      +",
"       #RQQQQQQWcccfcccfcjvjvjjVCBNMMBCBVVCCCCmSQQQRQWQP.      +",
".      #RQQQQQQWMffcfcccjvjjjvvjMNMMMNBCVVVVCCVHWQQQQWQP.    . +",
"       oRQQQQQQWcfccccffjjjjjjjjMMMMMMVMVVVVVVnAQQQQQWQP       o",
"@@@@@$O%TQWWWWWWccccccVcVVvVVVvVZBZBMBZBZCCCZCBGRWWRWWQL$@@$#@+%",
"psispssgvVNNVVVNGGGGGGGGUKUKKUKKIIIIIIIIKYKUUKUKHHHSHSHSxxtxxxxx",
"ggggggggvvvvvvvVGGGGGGGGUYUYUUYYIIIIIIIIYKYIUYYKZSSSSZSSCCMMBMMB",
"ggggggggvVVvvvvVGGGGGGGGUUUUUYUUIIIIIIIIYYKYYUYUSSSSSSSSNnmMnMmB",
"ggggggggvvvVvvvvGGGGGGGGUUUUUUUUIIIIIIIIKYYKIUIKSSSSSSSSmMMnMnnB",
"ggggggggvvvNvVvVGGGGGGGGUYUUUUUUIIIIIIIIYKYYYYKKSSSSSSSZMnnMMMnB",
"ggggggggvvvvvVvVGGGGGGGGUUUUUUUYIIIIIIIIYKKYKKYKSSSSZHSSMmMMMncB",
"ggggggggvvvvvvjVGKJGKGGKUYYUYYYYIIIIIIIIKKKKYYKKSSSSSSSSnMMnMnnB",
"gggggggvvvvNvVvcDDDDDDDDKKKUKKKKIIIKIIIIGKKGKKGGSSSSSSSZMMBnMMMB",
"vvccccccVccccccf<;;,,,:1vNvNmNvNCZNZZZZv512133<6DZZFZZZHBAZSZZZH",
"vvccccccccVjcccf-======,vmmvVvVvCZZNNNZv2;>;>>;5ZZFZZHZZSAZSSZZH",
"vccccVccccccccVf:-----=,vmvNvVvNNZNNNZDv3><>><;5ZZZZHZHZZZZZZZZH",
"vVcccccccccccccf------=1vVmvVvNvZNNZNBNN2>>>>>;5ZZFZZZZZZSSZSZZH",
"cccjccccccccccmd:=----=,vnvmvNvNNNBNBNNv2>><><;5ZZZDHZZHHZZZSZZH",
"cccVccccVcccccmd:=:----<vNNvNvNvNZBBNNDv2>>>>2;5ZFZZZZZZZZZHSSZH",
"VcVjccccccccccms-=-====;vvNvvNNNZBBBZBZv<;>>>>;5NNHZZZHZZZZZZZZH",
"cfjccjccjcjvccmd<,,,<,,1hvvvvvvvNNNNBNBv53333326ZKZZHHZZHZZZZZZH",
"fsssg7gggggggggg7777777799998880kkkkkkkk00ww000rHZZHFHKFZZFZFFZF",
"fsssgggggggggggg7777777799888888kkkkkkkkrwwwwe0rHKHHHHZHFFZHZFZF",
"ssssgggggggggggg7777777788888888kkkkkkkk0rwwwewrHHHHZFHFZFZDFZFF",
"ssssgg7ggggggggg7777777788898880kkkkkkkk00www00rFZZKZKHHFZFZZFZF",
"sssss7gggggggggg7777777788888888kkkkkkkkr0wwwwwrHHZZFHZFZFFZFHZF",
"ssssgggggggggggg7777777788888888kkkkkkkk00rwwwwrHFKHFHZKFFZHZDZF",
"ssssggg7ggggggg77777777788888788kkkkkkkk0000000rHHFFHHHHZFZDZFFG",
"ssssggsgvgggggvvq797989909090000lllllllkrrwkererFHHHHFFHFZFZFZZH",
"fccfcfcfvvvvgvvvccmjmcjmMMMMMMMMSAAAbAASBNBNBnNBASSBZZZZZZZZZHZH",
"ccfcfcfcgvvvvvvammmmmmVmMMMMMMMMAAAASSASBBNBBNNBCCZSZZZZZZHZZZZH",
"fccfccccvgvghvvvmmcmmmcmMMMMMMMMAAMASAAbBBNBBBNBSSCSBSZZZHZZZZZH",
"cffccffcvvgvgvavjVmVcVVcMMMMSMMMAAAASSSSBNBBBBBBSBASCZCZZZZZZZZH",
"ffccccffjvjjvvgvmVccMccMMMMMMMMMSSbASAMANBNNBBNBZACSZZZZZZZZZHZH",
"VfcfjfjcjhjjhghvcmmmcMcxMMMMMMMMSSSAAAAABBBBNNBBCSZAZSZZHZZZZZZH",
"ccfcjcjfjhhjgjjhcmmcccccMMMMMMMSAASAAAMANNNBBBNBBSCSNZZZZZZZZZNH",
"ccccmccmmmmmnmvmNMMMBBMMMAMSMSSbSSFSDFAADBBABBBASSASHZHZHHHHHHHJ"
};
